<svg xmlns="http://www.w3.org/2000/svg" id="Group_18" width="17.942" height="18.447" viewBox="0 0 17.942 18.447">
    <defs>
        <style>
            .cls-1{fill:#fafafa}
        </style>
    </defs>
    <path id="Path_38" d="M842.493 83.62q-2.065-2.011-4.119-4.035a7.5 7.5 0 0 0 1.644-4.653 7.637 7.637 0 1 0-3.391 6.264c1.347 1.423 2.684 2.833 4.018 4.247a.714.714 0 0 0 .934.145 2.245 2.245 0 0 0 1.051-1.088.7.7 0 0 0-.137-.88zm-10.063-3.2a5.549 5.549 0 1 1 5.52-5.559 5.567 5.567 0 0 1-5.521 5.555z" class="cls-1" transform="translate(-824.783 -67.25)"/>
    <path id="Path_39" d="M829.771 70.6a4.7 4.7 0 0 0-2.078 3.729c.027.165.067.376.094.589.035.286.126.53.474.456.327-.069.348-.33.3-.61a3.418 3.418 0 0 1 1.312-3.243c.126-.116.276-.206.4-.327a.388.388 0 0 0 .013-.575c-.168-.192-.339-.143-.515-.019z" class="cls-1" transform="translate(-824.326 -66.741)"/>
</svg>
